<svg width="256" height="256" viewBox="0 0 256 256" fill="none" xmlns="http://www.w3.org/2000/svg">
<g clip-path="url(#clip0_2_38)">
<rect width="256" height="256" fill="url(#paint0_linear_2_38)"/>
<mask id="path-3-inside-1_2_38" fill="white">
<rect width="256" height="256" rx="56"/>
</mask>
<rect width="256" height="256" rx="56" stroke="url(#paint1_linear_2_38)" stroke-width="48" mask="url(#path-3-inside-1_2_38)"/>
<path fill-rule="evenodd" clip-rule="evenodd" d="M96.8426 155.653C104.914 154.644 112.801 156.456 118.768 160.991V64.6194C118.768 62.1678 120.424 60.0254 122.793 59.385V59.3777L175.155 45.338C178.643 44.403 181.976 47.1123 181.976 50.5725V75.5751C181.976 78.0267 180.313 80.1691 177.951 80.8095V80.8169L127.811 94.2675V179.021C127.811 202.603 95.0629 218.041 75.9927 203.5C57.0109 189.026 69.9152 159.012 96.8426 155.653Z" fill="url(#paint2_linear_2_38)"/>
</g>
<rect x="6" y="6" width="244" height="244" rx="50" stroke="url(#paint3_linear_2_38)" stroke-width="12"/>
<defs>
<linearGradient id="paint0_linear_2_38" x1="128" y1="0" x2="128" y2="256" gradientUnits="userSpaceOnUse">
<stop stop-color="#2640D9"/>
<stop offset="1" stop-color="#142273"/>
</linearGradient>
<linearGradient id="paint1_linear_2_38" x1="128" y1="0" x2="128" y2="256" gradientUnits="userSpaceOnUse">
<stop stop-color="#0C1341" stop-opacity="0.8"/>
<stop offset="1" stop-color="#020309" stop-opacity="0.8"/>
</linearGradient>
<linearGradient id="paint2_linear_2_38" x1="128.5" y1="46" x2="128.5" y2="210" gradientUnits="userSpaceOnUse">
<stop stop-color="#F2EBD1" stop-opacity="0.8"/>
<stop offset="1" stop-color="white" stop-opacity="0.8"/>
</linearGradient>
<linearGradient id="paint3_linear_2_38" x1="128" y1="0" x2="128" y2="256" gradientUnits="userSpaceOnUse">
<stop stop-color="white" stop-opacity="0.8"/>
<stop offset="1" stop-color="#AAA79C" stop-opacity="0.8"/>
</linearGradient>
<clipPath id="clip0_2_38">
<rect width="256" height="256" rx="56" fill="white"/>
</clipPath>
</defs>
</svg>
